# xmcd
#
# Track frame offsets: 
#        150
#        18200
#        32782
#        47512
#        60270
#        74220
#        88980
#        106057
#        125407
#        144547
#        163050
#        179710
#        200195
#        221407
#        237725
#        253165
#
# Disc length: 3635 seconds
#
# Revision: 2
# Processed by: cddbd v1.5.2PL0 Copyright (c) Steve Scherf et al.
# Submitted via: ExactAudioCopy v1.0b3
#
DISCID=f60e3110
DTITLE=彭健新 - 彭健新 寶麗金88極品音色系列
DYEAR=1998
DGENRE=Pop
TTITLE0=彭健新 \\ 一闕短歌 
TTITLE1=彭健新 \\ 陽光大減價
TTITLE2=彭健新 \\ 二等良民 (電影"二等良民"主題曲)
TTITLE3=彭健新 \\ 莫彷徨
TTITLE4=彭健新 \\ 浮世繪
TTITLE5=彭健新 \\ 可愛的笑容
TTITLE6=彭健新 \\ 借來的美夢
TTITLE7=彭健新、雷安娜 \\ 停不了的愛 (電影"停不了的愛"主題曲)
TTITLE8=彭健新 \\ Mr Cool
TTITLE9=彭健新、鍾鎮濤 \\ 一段情 (電影"表錯七日情"主題曲)
TTITLE10=彭健新、譚詠麟 \\ 玩的格言 (電影"四眼仔"主題曲)
TTITLE11=彭健新 \\ 我的心
TTITLE12=彭健新 \\ 無名的歌
TTITLE13=彭健新 \\ 在這變幻裡
TTITLE14=彭健新 \\ 蒙娜麗莎小雞雞
TTITLE15=彭健新 \\ 卡通雜果冰 Medley (Iq博士, 叮噹, 小小肥皂泡, 忍者小精靈, 432穿梭機)
EXTD=YEAR: 1998 ID3G:   0
EXTT0=
EXTT1=
EXTT2=
EXTT3=
EXTT4=
EXTT5=
EXTT6=
EXTT7=
EXTT8=
EXTT9=
EXTT10=
EXTT11=
EXTT12=
EXTT13=
EXTT14=
EXTT15=
PLAYORDER=
